<svg xmlns="http://www.w3.org/2000/svg" viewBox="0 0 24 30" fill="none" x="0px" y="0px"><path fill-rule="evenodd" clip-rule="evenodd" d="M4 4.75C3.30964 4.75 2.75 5.30964 2.75 6V14C2.75 14.6904 3.30964 15.25 4 15.25H20C20.6904 15.25 21.25 14.6904 21.25 14V6C21.25 5.30964 20.6904 4.75 20 4.75H18C17.5858 4.75 17.25 4.41421 17.25 4C17.25 3.58579 17.5858 3.25 18 3.25H20C21.5188 3.25 22.75 4.48122 22.75 6V14C22.75 15.5188 21.5188 16.75 20 16.75H4C2.48122 16.75 1.25 15.5188 1.25 14V6C1.25 4.48122 2.48122 3.25 4 3.25H14C14.4142 3.25 14.75 3.58579 14.75 4C14.75 4.41421 14.4142 4.75 14 4.75H4Z" fill="black"/><path fill-rule="evenodd" clip-rule="evenodd" d="M4 15.25C4.41421 15.25 4.75 15.5858 4.75 16V20C4.75 20.4142 4.41421 20.75 4 20.75C3.58579 20.75 3.25 20.4142 3.25 20V16C3.25 15.5858 3.58579 15.25 4 15.25Z" fill="black"/><path fill-rule="evenodd" clip-rule="evenodd" d="M20 15.25C20.4142 15.25 20.75 15.5858 20.75 16V20C20.75 20.4142 20.4142 20.75 20 20.75C19.5858 20.75 19.25 20.4142 19.25 20V16C19.25 15.5858 19.5858 15.25 20 15.25Z" fill="black"/><path fill-rule="evenodd" clip-rule="evenodd" d="M6 5.75C6.41421 5.75 6.75 6.08579 6.75 6.5V13.5C6.75 13.9142 6.41421 14.25 6 14.25C5.58579 14.25 5.25 13.9142 5.25 13.5V6.5C5.25 6.08579 5.58579 5.75 6 5.75Z" fill="black"/><path fill-rule="evenodd" clip-rule="evenodd" d="M9 5.75C9.41421 5.75 9.75 6.08579 9.75 6.5V13.5C9.75 13.9142 9.41421 14.25 9 14.25C8.58579 14.25 8.25 13.9142 8.25 13.5V6.5C8.25 6.08579 8.58579 5.75 9 5.75Z" fill="black"/><path fill-rule="evenodd" clip-rule="evenodd" d="M12 5.75C12.4142 5.75 12.75 6.08579 12.75 6.5V13.5C12.75 13.9142 12.4142 14.25 12 14.25C11.5858 14.25 11.25 13.9142 11.25 13.5V6.5C11.25 6.08579 11.5858 5.75 12 5.75Z" fill="black"/><path fill-rule="evenodd" clip-rule="evenodd" d="M15 5.75C15.4142 5.75 15.75 6.08579 15.75 6.5V13.5C15.75 13.9142 15.4142 14.25 15 14.25C14.5858 14.25 14.25 13.9142 14.25 13.5V6.5C14.25 6.08579 14.5858 5.75 15 5.75Z" fill="black"/><path fill-rule="evenodd" clip-rule="evenodd" d="M18 5.75C18.4142 5.75 18.75 6.08579 18.75 6.5V13.5C18.75 13.9142 18.4142 14.25 18 14.25C17.5858 14.25 17.25 13.9142 17.25 13.5V6.5C17.25 6.08579 17.5858 5.75 18 5.75Z" fill="black"/></svg>