<svg xmlns="http://www.w3.org/2000/svg" data-name="Layer 1" viewBox="0 0 100 125" x="0px" y="0px"><title>Artboard 9</title><path d="M97.9,38.33,51.4,6.89a2.5,2.5,0,0,0-2.8,0L2.1,38.33a2.5,2.5,0,1,0,2.8,4.14l5.6-3.79V88.54H4.75a2.5,2.5,0,0,0,0,5h90.5a2.5,2.5,0,0,0,0-5H89.5V38.69l5.6,3.79a2.5,2.5,0,1,0,2.8-4.14ZM72.75,88.54H27.25V45.3a1.42,1.42,0,0,1,1.42-1.42H71.33a1.42,1.42,0,0,1,1.42,1.42Zm11.75,0H77.75V45.3a6.42,6.42,0,0,0-6.42-6.42H28.67a6.42,6.42,0,0,0-6.42,6.42V88.54H15.5V35.31L50,12,84.5,35.31Z"/><path d="M64.29,64H35.71a2.5,2.5,0,0,0,0,5H64.29a2.5,2.5,0,0,0,0-5Z"/><path d="M64.29,51.67H35.71a2.5,2.5,0,0,0,0,5H64.29a2.5,2.5,0,0,0,0-5Z"/><path d="M64.29,76.42H35.71a2.5,2.5,0,0,0,0,5H64.29a2.5,2.5,0,0,0,0-5Z"/><text x="0" y="115" fill="#000000" font-size="5px" font-weight="bold" font-family="'Helvetica Neue', Helvetica, Arial-Unicode, Arial, Sans-serif">Created by Gregor Cresnar</text><text x="0" y="120" fill="#000000" font-size="5px" font-weight="bold" font-family="'Helvetica Neue', Helvetica, Arial-Unicode, Arial, Sans-serif">from the Noun Project</text></svg>