<svg xmlns="http://www.w3.org/2000/svg" data-name="Layer 1" viewBox="0 0 512 640" x="0px" y="0px"><title>vehicle</title><path d="M406.29,171.43H381a16,16,0,0,1-15.72-19l11.62-61.75A53.17,53.17,0,0,1,415.3,49.38l45.48-12.07a16,16,0,0,1,19.56,11.36l8.82,33.24a16,16,0,0,1-11.36,19.56l-34.3,9.1A23.81,23.81,0,0,0,426,130.21l-3.89,27.47A16.08,16.08,0,0,1,406.29,171.43Zm-25-16.28H406l3.86-27.24a40.07,40.07,0,0,1,29.42-33.08l34-9-8.68-32.69-45.19,12a36.81,36.81,0,0,0-26.6,28.63h0Zm3.55-62.91h0Z"/><path d="M365.16,342.65H339.52a8.14,8.14,0,0,1,0-16.28h25.64A21.36,21.36,0,0,0,386.49,305V163.29a8.14,8.14,0,1,1,16.28,0V305A37.65,37.65,0,0,1,365.16,342.65Z"/><path d="M167.41,397.74a8.14,8.14,0,0,1-5.75-13.9L198.48,347l-30.28-11a8.14,8.14,0,0,1-2.77-13.62l44.31-41.12a8.14,8.14,0,1,1,11.08,11.93l-34.53,32.05,29.77,10.78a8.14,8.14,0,0,1,3,13.41l-45.87,45.88A8.11,8.11,0,0,1,167.41,397.74Z"/><path d="M352.28,508.37H30.45a8.14,8.14,0,0,1-7.87-10.24l15.71-58.94a8.14,8.14,0,0,1,7.87-6H336.57a8.14,8.14,0,0,1,7.87,6l15.71,58.94a8.15,8.15,0,0,1-7.87,10.24ZM41,492.09H341.68l-11.37-42.66H52.41Z"/><path d="M308.47,416.87a8.15,8.15,0,0,1-8.14-8.14V31.42a11.52,11.52,0,0,0-11.5-11.51H93.9A11.52,11.52,0,0,0,82.39,31.42V408.73a8.14,8.14,0,0,1-16.28,0V31.42A27.82,27.82,0,0,1,93.9,3.63H288.83a27.81,27.81,0,0,1,27.78,27.79V408.73A8.14,8.14,0,0,1,308.47,416.87Z"/><path d="M252.53,186.87H130.19a16.29,16.29,0,0,1-16.28-16.28V67.71a16.29,16.29,0,0,1,16.28-16.28H252.53a16.29,16.29,0,0,1,16.28,16.28V170.59A16.29,16.29,0,0,1,252.53,186.87ZM130.19,67.71V170.59H252.53V67.71Z"/><path d="M128.43,234.93h-6.38a8.14,8.14,0,0,1,0-16.28h6.38a8.14,8.14,0,0,1,0,16.28Z"/><path d="M194.55,234.93h-6.37a8.14,8.14,0,0,1,0-16.28h6.37a8.14,8.14,0,0,1,0,16.28Z"/><path d="M260.67,234.93H254.3a8.14,8.14,0,0,1,0-16.28h6.37a8.14,8.14,0,0,1,0,16.28Z"/></svg>