<svg xmlns="http://www.w3.org/2000/svg" xmlns:xlink="http://www.w3.org/1999/xlink" version="1.1" x="0px" y="0px" viewBox="0 0 100 125" style="enable-background:new 0 0 100 100;" xml:space="preserve"><path d="M50.13,1.93C23.68,1.93,2.17,23.49,2.17,50c0,26.51,21.51,48.07,47.95,48.07c26.44,0,47.95-21.57,47.95-48.07  C98.08,23.49,76.57,1.93,50.13,1.93z M50.13,91.18C27.47,91.18,9.05,72.71,9.05,50c0-22.71,18.43-41.18,41.08-41.18  C72.78,8.82,91.2,27.29,91.2,50C91.2,72.71,72.78,91.18,50.13,91.18z M78.22,52.64c0,1.9-1.54,3.45-3.44,3.45H48.81  c-1.9,0-3.44-1.54-3.44-3.45V24.5c0-1.9,1.54-3.45,3.44-3.45s3.44,1.54,3.44,3.45v24.69h22.53C76.68,49.19,78.22,50.74,78.22,52.64z  "/></svg>