<svg xmlns="http://www.w3.org/2000/svg" viewBox="0 0 60 75" x="0px" y="0px"><title>krone_norwegian_forex_NOK</title><path d="M37,24a4.92,4.92,0,0,0-3,1v0a1,1,0,0,0-2,0v8a1,1,0,0,0,2,0V29a3,3,0,0,1,3-3,1,1,0,0,0,0-2Z"/><path d="M30,21a1,1,0,0,0-2,0,5,5,0,0,1-4,4.9V21a1,1,0,0,0-2,0V33a1,1,0,0,0,2,0V28h.42a2.12,2.12,0,0,1,2,1.29l1.63,4.08A1,1,0,0,0,29,34a1,1,0,0,0,.37-.07,1,1,0,0,0,.56-1.3L28.3,28.53a4,4,0,0,0-1.38-1.74A7,7,0,0,0,30,21Z"/><path d="M30,47A20,20,0,1,1,50,27,20,20,0,0,1,30,47ZM30,9A18,18,0,1,0,48,27,18,18,0,0,0,30,9Z"/><path d="M30,2A25,25,0,0,0,5,27v6A25,25,0,0,0,23,57h0a24.74,24.74,0,0,0,7,1A25,25,0,0,0,55,33V27A25,25,0,0,0,30,2Zm0,2A23,23,0,1,1,7,27,23,23,0,0,1,30,4ZM29,52v4a22.92,22.92,0,0,1-4-.52v-4A25.12,25.12,0,0,0,29,52Zm2,0a25.12,25.12,0,0,0,4-.47v4A22.92,22.92,0,0,1,31,56Zm6-1a25.13,25.13,0,0,0,4-1.56v3.75a22.54,22.54,0,0,1-4,1.72ZM11,43.22v2.72A22.84,22.84,0,0,1,7.55,38,24.8,24.8,0,0,0,11,43.22Zm2,5.26V45.31a25.25,25.25,0,0,0,4,3V52A23.74,23.74,0,0,1,13,48.48Zm6,4.71V49.44A25,25,0,0,0,23,51h0v3.91A22.54,22.54,0,0,1,19,53.19ZM43,52V48.35a25.25,25.25,0,0,0,4-3v3.17A23.74,23.74,0,0,1,43,52Zm6-6V43.22A24.8,24.8,0,0,0,52.45,38,22.84,22.84,0,0,1,49,45.94Z"/></svg>