<svg xmlns="http://www.w3.org/2000/svg" xmlns:xlink="http://www.w3.org/1999/xlink" xmlns:sketch="http://www.bohemiancoding.com/sketch/ns" viewBox="0 0 60 75" version="1.1" x="0px" y="0px"><title>tesla-energy</title><desc>Created with Sketch.</desc><g stroke="none" stroke-width="1" fill="none" fill-rule="evenodd" sketch:type="MSPage"><g sketch:type="MSArtboardGroup" fill="#000000"><path d="M17.0518,7.3164 C16.8768,6.7924 17.1598,6.2264 17.6838,6.0514 L23.6838,4.0514 C24.0418,3.9304 24.4398,4.0244 24.7068,4.2934 L25.8448,5.4304 L29.1678,0.4454 C29.3658,0.1494 29.6898,-0.0256 30.0628,0.0024 C30.4178,0.0244 30.7358,0.2334 30.8948,0.5524 L33.3878,5.5394 L38.4458,2.1684 C38.7418,1.9694 39.1248,1.9454 39.4478,2.1054 L43.4478,4.1054 C43.9418,4.3524 44.1418,4.9534 43.8948,5.4474 C43.6468,5.9414 43.0468,6.1414 42.5528,5.8944 L39.0728,4.1534 L33.5548,7.8324 C33.3168,7.9904 33.0228,8.0404 32.7428,7.9664 C32.4658,7.8934 32.2338,7.7034 32.1058,7.4474 L29.8758,2.9884 L26.8318,7.5544 C26.6658,7.8044 26.3968,7.9654 26.0988,7.9954 C25.7958,8.0284 25.5048,7.9194 25.2928,7.7074 L23.7298,6.1444 L18.3168,7.9484 C18.2108,7.9834 18.1048,8.0004 17.9998,8.0004 C17.5808,8.0004 17.1918,7.7354 17.0518,7.3164 M54.9288,14.0004 C55.2048,13.5204 55.8168,13.3564 56.2948,13.6344 L58.0268,14.6344 C58.5048,14.9104 58.6688,15.5224 58.3928,16.0004 C58.2068,16.3204 57.8708,16.5004 57.5258,16.5004 C57.3558,16.5004 57.1838,16.4574 57.0268,16.3654 L55.2948,15.3654 C54.8168,15.0894 54.6528,14.4784 54.9288,14.0004 M54.9288,6.0004 C54.6528,5.5214 54.8168,4.9104 55.2948,4.6334 L57.0278,3.6334 C57.5038,3.3584 58.1158,3.5214 58.3938,4.0004 C58.6698,4.4784 58.5058,5.0894 58.0278,5.3664 L56.2948,6.3664 C56.1378,6.4574 55.9658,6.5004 55.7958,6.5004 C55.4498,6.5004 55.1148,6.3204 54.9288,6.0004 M56.9998,9.0004 L58.9998,9.0004 C59.5528,9.0004 59.9998,9.4474 59.9998,10.0004 C59.9998,10.5524 59.5528,11.0004 58.9998,11.0004 L56.9998,11.0004 C56.4478,11.0004 55.9998,10.5524 55.9998,10.0004 C55.9998,9.4474 56.4478,9.0004 56.9998,9.0004 M5.0718,14.0004 C5.3478,14.4784 5.1838,15.0894 4.7048,15.3664 L2.9728,16.3664 C2.8158,16.4574 2.6438,16.5004 2.4738,16.5004 C2.1278,16.5004 1.7918,16.3204 1.6068,16.0004 C1.3298,15.5214 1.4938,14.9104 1.9728,14.6334 L3.7048,13.6334 C4.1818,13.3584 4.7948,13.5204 5.0718,14.0004 M1.6078,4.0004 C1.8848,3.5214 2.4948,3.3564 2.9738,3.6344 L4.7048,4.6344 C5.1838,4.9104 5.3478,5.5224 5.0718,6.0004 C4.8858,6.3204 4.5498,6.5004 4.2038,6.5004 C4.0338,6.5004 3.8628,6.4574 3.7048,6.3654 L1.9738,5.3654 C1.4948,5.0894 1.3308,4.4784 1.6078,4.0004 M-0.0002,10.0004 C-0.0002,9.4474 0.4478,9.0004 0.9998,9.0004 L2.9998,9.0004 C3.5528,9.0004 3.9998,9.4474 3.9998,10.0004 C3.9998,10.5524 3.5528,11.0004 2.9998,11.0004 L0.9998,11.0004 C0.4478,11.0004 -0.0002,10.5524 -0.0002,10.0004 M9.9998,10.0004 C9.9998,8.8974 10.8978,8.0004 11.9998,8.0004 C13.1028,8.0004 13.9998,8.8974 13.9998,10.0004 C13.9998,11.1034 13.1028,12.0004 11.9998,12.0004 C10.8978,12.0004 9.9998,11.1034 9.9998,10.0004 M47.9998,8.0004 C49.1028,8.0004 49.9998,8.8974 49.9998,10.0004 C49.9998,11.1034 49.1028,12.0004 47.9998,12.0004 C46.8978,12.0004 45.9998,11.1034 45.9998,10.0004 C45.9998,8.8974 46.8978,8.0004 47.9998,8.0004 M53.9998,38.0004 L46.9998,38.0004 C46.4478,38.0004 45.9998,38.4474 45.9998,39.0004 C45.9998,39.5524 46.4478,40.0004 46.9998,40.0004 L53.9998,40.0004 C56.2058,40.0004 57.9998,41.7944 57.9998,44.0004 L57.9998,58.0004 L1.9998,58.0004 L1.9998,44.0004 C1.9998,41.7944 3.7938,40.0004 5.9998,40.0004 L10.9998,40.0004 C11.5528,40.0004 11.9998,39.5524 11.9998,39.0004 C11.9998,33.2844 14.7738,27.8494 19.4188,24.4624 C19.8318,24.1604 19.9518,23.5964 19.6968,23.1534 L17.6338,19.5814 L19.3658,18.5814 L21.4238,22.1444 C21.6798,22.5874 22.2328,22.7684 22.6968,22.5584 C27.3428,20.4904 32.6568,20.4904 37.3038,22.5584 C37.7698,22.7674 38.3218,22.5874 38.5758,22.1444 L40.6338,18.5814 L42.3658,19.5824 L40.3038,23.1534 C40.0478,23.5964 40.1678,24.1604 40.5808,24.4624 C44.1778,27.0844 46.6698,30.9004 47.5978,35.2064 C47.7128,35.7464 48.2408,36.0874 48.7858,35.9734 C49.3258,35.8574 49.6688,35.3254 49.5528,34.7854 C48.5838,30.2904 46.0848,26.2764 42.4758,23.3924 L44.5988,19.7154 C44.7318,19.4864 44.7668,19.2134 44.6978,18.9574 C44.6298,18.7004 44.4618,18.4824 44.2328,18.3494 L43.4108,17.8754 L46.2078,13.5574 C46.7498,13.8314 47.3528,14.0004 47.9998,14.0004 C50.2058,14.0004 51.9998,12.2054 51.9998,10.0004 C51.9998,7.7944 50.2058,6.0004 47.9998,6.0004 C45.7938,6.0004 43.9998,7.7944 43.9998,10.0004 C43.9998,10.8264 44.2518,11.5954 44.6838,12.2334 L41.6778,16.8754 L40.7678,16.3494 C40.2898,16.0734 39.6778,16.2374 39.4018,16.7154 L37.2838,20.3824 C32.6178,18.5464 27.3818,18.5464 22.7158,20.3824 L20.5988,16.7154 C20.3218,16.2364 19.7078,16.0724 19.2328,16.3494 L18.3228,16.8744 L15.3128,12.2394 C15.7458,11.6004 15.9998,10.8294 15.9998,10.0004 C15.9998,7.7944 14.2058,6.0004 11.9998,6.0004 C9.7938,6.0004 7.9998,7.7944 7.9998,10.0004 C7.9998,12.2054 9.7938,14.0004 11.9998,14.0004 C12.6448,14.0004 13.2448,13.8324 13.7848,13.5604 L16.5868,17.8764 L15.7678,18.3494 C15.5378,18.4824 15.3698,18.7004 15.3018,18.9564 C15.2338,19.2124 15.2688,19.4854 15.4018,19.7154 L17.5248,23.3934 C13.0588,26.9694 10.3148,32.3164 10.0258,38.0004 L5.9998,38.0004 C2.6918,38.0004 -0.0002,40.6914 -0.0002,44.0004 L-0.0002,59.0004 C-0.0002,59.5524 0.4478,60.0004 0.9998,60.0004 L58.9998,60.0004 C59.5528,60.0004 59.9998,59.5524 59.9998,59.0004 L59.9998,44.0004 C59.9998,40.6914 57.3088,38.0004 53.9998,38.0004 M42.1478,32.0694 C43.3208,34.1154 43.9998,36.4774 43.9998,39.0004 C43.9998,39.5524 43.5528,40.0004 42.9998,40.0004 L14.9998,40.0004 C14.4478,40.0004 13.9998,39.5524 13.9998,39.0004 C13.9998,38.4474 14.4478,38.0004 14.9998,38.0004 L29.4228,38.0004 L32.6338,32.4384 C32.9108,31.9594 33.5218,31.7954 33.9998,32.0724 C34.4788,32.3484 34.6428,32.9604 34.3658,33.4384 L31.7328,38.0004 L41.9588,38.0004 C41.8378,36.5404 41.4478,35.1574 40.8488,33.8914 L40.0278,34.3654 C39.8688,34.4574 39.6978,34.5004 39.5278,34.5004 C39.1818,34.5004 38.8458,34.3214 38.6598,34.0004 C38.3838,33.5224 38.5478,32.9104 39.0258,32.6344 L39.8418,32.1624 C39.0258,30.9904 38.0078,29.9744 36.8368,29.1584 L36.3658,29.9734 C36.1808,30.2944 35.8448,30.4734 35.4988,30.4734 C35.3288,30.4734 35.1568,30.4304 34.9998,30.3394 C34.5218,30.0634 34.3578,29.4524 34.6338,28.9734 L35.1068,28.1544 C33.8418,27.5564 32.4588,27.1694 30.9998,27.0474 L30.9998,28.0004 C30.9998,28.5524 30.5528,29.0004 29.9998,29.0004 C29.4478,29.0004 28.9998,28.5524 28.9998,28.0004 L28.9998,27.0424 C27.5458,27.1614 26.1598,27.5454 24.8868,28.1434 L25.3658,28.9734 C25.6428,29.4514 25.4788,30.0634 24.9998,30.3394 C24.8428,30.4304 24.6708,30.4734 24.5008,30.4734 C24.1558,30.4734 23.8198,30.2944 23.6338,29.9734 L23.1528,29.1404 C21.9848,29.9514 20.9628,30.9684 20.1428,32.1544 L20.9738,32.6334 C21.4518,32.9104 21.6158,33.5214 21.3398,34.0004 C21.1548,34.3204 20.8188,34.5004 20.4728,34.5004 C20.3028,34.5004 20.1308,34.4574 19.9738,34.3664 L19.1478,33.8894 C18.9278,34.3574 18.7288,34.8394 18.5678,35.3434 C18.3998,35.8684 17.8408,36.1584 17.3108,35.9914 C16.7848,35.8234 16.4938,35.2604 16.6628,34.7344 C16.9708,33.7714 17.3828,32.8654 17.8688,32.0164 C17.8718,32.0104 17.8718,32.0044 17.8748,32.0004 C17.8778,31.9954 17.8818,31.9934 17.8848,31.9894 C20.3448,27.7184 24.9058,25.0004 29.9998,25.0004 C32.5218,25.0004 34.8828,25.6794 36.9288,26.8514 C36.9518,26.8624 36.9778,26.8614 36.9998,26.8754 C37.0288,26.8914 37.0438,26.9184 37.0708,26.9374 C39.1298,28.1494 40.8508,29.8694 42.0628,31.9284 C42.0808,31.9544 42.1078,31.9704 42.1238,31.9984 C42.1368,32.0214 42.1368,32.0454 42.1478,32.0694 M49.9998,47.0004 C49.9998,47.5524 49.5528,48.0004 48.9998,48.0004 L36.9998,48.0004 C36.4478,48.0004 35.9998,47.5524 35.9998,47.0004 C35.9998,46.4474 36.4478,46.0004 36.9998,46.0004 L48.9998,46.0004 C49.5528,46.0004 49.9998,46.4474 49.9998,47.0004 M49.9998,51.0004 C49.9998,51.5524 49.5528,52.0004 48.9998,52.0004 L36.9998,52.0004 C36.4478,52.0004 35.9998,51.5524 35.9998,51.0004 C35.9998,50.4474 36.4478,50.0004 36.9998,50.0004 L48.9998,50.0004 C49.5528,50.0004 49.9998,50.4474 49.9998,51.0004 M29.9998,49.0004 C29.9998,49.5514 29.5518,50.0004 28.9998,50.0004 C28.4478,50.0004 27.9998,49.5514 27.9998,49.0004 C27.9998,48.4484 28.4478,48.0004 28.9998,48.0004 C29.5518,48.0004 29.9998,48.4484 29.9998,49.0004 M25.9998,49.0004 C25.9998,50.6544 27.3458,52.0004 28.9998,52.0004 C30.6548,52.0004 31.9998,50.6544 31.9998,49.0004 C31.9998,47.3454 30.6548,46.0004 28.9998,46.0004 C27.3458,46.0004 25.9998,47.3454 25.9998,49.0004 M21.9998,49.0004 C21.9998,49.5514 21.5518,50.0004 20.9998,50.0004 C20.4478,50.0004 19.9998,49.5514 19.9998,49.0004 C19.9998,48.4484 20.4478,48.0004 20.9998,48.0004 C21.5518,48.0004 21.9998,48.4484 21.9998,49.0004 M17.9998,49.0004 C17.9998,50.6544 19.3458,52.0004 20.9998,52.0004 C22.6548,52.0004 23.9998,50.6544 23.9998,49.0004 C23.9998,47.3454 22.6548,46.0004 20.9998,46.0004 C19.3458,46.0004 17.9998,47.3454 17.9998,49.0004 M13.9998,49.0004 C13.9998,49.5514 13.5518,50.0004 12.9998,50.0004 C12.4478,50.0004 11.9998,49.5514 11.9998,49.0004 C11.9998,48.4484 12.4478,48.0004 12.9998,48.0004 C13.5518,48.0004 13.9998,48.4484 13.9998,49.0004 M9.9998,49.0004 C9.9998,50.6544 11.3458,52.0004 12.9998,52.0004 C14.6548,52.0004 15.9998,50.6544 15.9998,49.0004 C15.9998,47.3454 14.6548,46.0004 12.9998,46.0004 C11.3458,46.0004 9.9998,47.3454 9.9998,49.0004" sketch:type="MSShapeGroup"/></g></g></svg>