<svg xmlns:inkscape="http://www.inkscape.org/namespaces/inkscape" xmlns:sodipodi="http://sodipodi.sourceforge.net/DTD/sodipodi-0.dtd" xmlns="http://www.w3.org/2000/svg" xmlns:svg="http://www.w3.org/2000/svg" viewBox="0 0 16.933333 21.166666250000002" version="1.1" x="0px" y="0px"><g transform="translate(851.24347,348.81778)"><path style="color:#000000;" d="M -849.12319 -344.84748 C -849.70725 -344.84748 -850.18565 -344.37066 -850.18565 -343.78708 L -850.18565 -340.81465 C -850.18565 -340.23107 -849.70725 -339.75373 -849.12319 -339.75373 L -836.43559 -339.75373 C -835.85152 -339.75373 -835.37105 -340.23107 -835.37105 -340.81465 L -835.37105 -343.78708 C -835.37105 -344.37066 -835.85152 -344.84748 -836.43559 -344.84748 L -849.12319 -344.84748 z M -849.12319 -344.31831 L -836.43559 -344.31831 C -836.13465 -344.31831 -835.90022 -344.08577 -835.90022 -343.78708 L -835.90022 -340.81465 C -835.90022 -340.51596 -836.13465 -340.28135 -836.43559 -340.28135 L -836.82213 -340.28135 L -836.82213 -340.66789 C -836.82213 -341.22383 -837.25019 -341.69935 -837.79675 -341.69935 L -847.75996 -341.69935 C -848.30652 -341.69935 -848.73613 -341.22384 -848.73613 -340.66789 L -848.73613 -340.28135 L -849.12319 -340.28135 C -849.42413 -340.28135 -849.65804 -340.51596 -849.65804 -340.81465 L -849.65804 -343.78708 C -849.65804 -344.08577 -849.42413 -344.31831 -849.12319 -344.31831 z M -839.61937 -344.0744 A 0.2645835 0.2645835 0 0 0 -839.88292 -343.81033 A 0.2645835 0.2645835 0 0 0 -839.61937 -343.54472 L -839.11915 -343.54472 A 0.2645835 0.2645835 0 0 0 -838.85353 -343.81033 A 0.2645835 0.2645835 0 0 0 -839.11915 -344.0744 L -839.61937 -344.0744 z M -838.2639 -344.0744 A 0.2645835 0.2645835 0 0 0 -838.52952 -343.81033 A 0.2645835 0.2645835 0 0 0 -838.2639 -343.54472 L -837.76367 -343.54472 A 0.2645835 0.2645835 0 0 0 -837.50012 -343.81033 A 0.2645835 0.2645835 0 0 0 -837.76367 -344.0744 L -838.2639 -344.0744 z M -843.94159 -343.0295 A 0.2645835 0.2645835 0 0 0 -844.20721 -342.76389 A 0.2645835 0.2645835 0 0 0 -843.94159 -342.49982 L -841.61512 -342.49982 A 0.2645835 0.2645835 0 0 0 -841.35157 -342.76389 A 0.2645835 0.2645835 0 0 0 -841.61512 -343.0295 L -843.94159 -343.0295 z M -847.75996 -341.16967 L -837.79675 -341.16967 C -837.5564 -341.16967 -837.35181 -340.96044 -837.35181 -340.66789 L -837.35181 -340.28135 L -848.20696 -340.28135 L -848.20696 -340.66789 C -848.20696 -340.96044 -848.00029 -341.16967 -847.75996 -341.16967 z M -842.77732 -338.87885 A 0.2645835 0.2645835 0 0 0 -843.04294 -338.6153 L -843.04294 -335.5881 A 0.2645835 0.2645835 0 0 0 -842.77732 -335.32248 A 0.2645835 0.2645835 0 0 0 -842.51377 -335.5881 L -842.51377 -338.6153 A 0.2645835 0.2645835 0 0 0 -842.77732 -338.87885 z M -846.79723 -338.87834 A 0.2645835 0.2645835 0 0 0 -847.07215 -338.68558 L -847.29694 -337.88098 C -847.62099 -336.71641 -848.67814 -335.91216 -849.88696 -335.91211 A 0.2645835 0.2645835 0 0 0 -850.15051 -335.64649 A 0.2645835 0.2645835 0 0 0 -849.88696 -335.38294 C -848.44301 -335.383 -847.17397 -336.34724 -846.78689 -337.73835 L -846.56262 -338.54296 A 0.2645835 0.2645835 0 0 0 -846.74607 -338.86903 A 0.2645835 0.2645835 0 0 0 -846.79723 -338.87834 z M -838.72434 -338.87834 A 0.2645835 0.2645835 0 0 0 -838.7755 -338.86903 A 0.2645835 0.2645835 0 0 0 -838.95895 -338.54296 L -838.73416 -337.73835 C -838.34708 -336.34724 -837.07856 -335.383 -835.6346 -335.38294 A 0.2645835 0.2645835 0 0 0 -835.36899 -335.64649 A 0.2645835 0.2645835 0 0 0 -835.6346 -335.91211 C -836.84341 -335.91216 -837.90058 -336.71641 -838.22463 -337.88098 L -838.44942 -338.68558 A 0.2645835 0.2645835 0 0 0 -838.72434 -338.87834 z " fill="#000000" stroke-linecap="round" stroke-linejoin="round"/></g><text x="0" y="31.933333" fill="#000000" font-size="5px" font-weight="bold" font-family="'Helvetica Neue', Helvetica, Arial-Unicode, Arial, Sans-serif">Created by Cuan Studio</text><text x="0" y="36.933333000000005" fill="#000000" font-size="5px" font-weight="bold" font-family="'Helvetica Neue', Helvetica, Arial-Unicode, Arial, Sans-serif">from the Noun Project</text></svg>