<svg xmlns="http://www.w3.org/2000/svg" xmlns:xlink="http://www.w3.org/1999/xlink" version="1.1" x="0px" y="0px" viewBox="0 0 48 60" style="enable-background:new 0 0 48 48;" xml:space="preserve"><g><path d="M6,36.5h7c0.3,0,0.5-0.2,0.5-0.5s-0.2-0.5-0.5-0.5H6c-0.8,0-1.5-0.7-1.5-1.5V6c0-0.8,0.7-1.5,1.5-1.5h36   c0.8,0,1.5,0.7,1.5,1.5v28c0,0.8-0.7,1.5-1.5,1.5h-7c-0.3,0-0.5,0.2-0.5,0.5s0.2,0.5,0.5,0.5h7c1.4,0,2.5-1.1,2.5-2.5V6   c0-1.4-1.1-2.5-2.5-2.5H6C4.6,3.5,3.5,4.6,3.5,6v28C3.5,35.4,4.6,36.5,6,36.5z"/><path d="M41,8.5c0.8,0,1.5-0.7,1.5-1.5S41.8,5.5,41,5.5S39.5,6.2,39.5,7S40.2,8.5,41,8.5z M41,6.5c0.3,0,0.5,0.2,0.5,0.5   S41.3,7.5,41,7.5S40.5,7.3,40.5,7S40.7,6.5,41,6.5z"/><path d="M7,5.5C6.2,5.5,5.5,6.2,5.5,7S6.2,8.5,7,8.5S8.5,7.8,8.5,7S7.8,5.5,7,5.5z M7,7.5C6.7,7.5,6.5,7.3,6.5,7S6.7,6.5,7,6.5   S7.5,6.7,7.5,7S7.3,7.5,7,7.5z"/><path d="M7,31.5c-0.8,0-1.5,0.7-1.5,1.5s0.7,1.5,1.5,1.5s1.5-0.7,1.5-1.5S7.8,31.5,7,31.5z M7,33.5c-0.3,0-0.5-0.2-0.5-0.5   s0.2-0.5,0.5-0.5s0.5,0.2,0.5,0.5S7.3,33.5,7,33.5z"/><path d="M41,34.5c0.8,0,1.5-0.7,1.5-1.5s-0.7-1.5-1.5-1.5s-1.5,0.7-1.5,1.5S40.2,34.5,41,34.5z M41,32.5c0.3,0,0.5,0.2,0.5,0.5   s-0.2,0.5-0.5,0.5s-0.5-0.2-0.5-0.5S40.7,32.5,41,32.5z"/><path d="M11.6,12.4c0.1,0.1,0.2,0.1,0.4,0.1h24c0.1,0,0.3-0.1,0.4-0.1l1-1c0.2-0.2,0.2-0.5,0-0.7s-0.5-0.2-0.7,0l-0.9,0.9H12.2   l-0.9-0.9c-0.2-0.2-0.5-0.2-0.7,0s-0.2,0.5,0,0.7L11.6,12.4z"/><path d="M10.6,13.4l1,1c0.1,0.1,0.2,0.1,0.4,0.1h24c0.1,0,0.3-0.1,0.4-0.1l1-1c0.2-0.2,0.2-0.5,0-0.7s-0.5-0.2-0.7,0l-0.9,0.9H12.2   l-0.9-0.9c-0.2-0.2-0.5-0.2-0.7,0S10.5,13.2,10.6,13.4z"/><path d="M10.6,15.4l1,1c0.1,0.1,0.2,0.1,0.4,0.1h24c0.1,0,0.3-0.1,0.4-0.1l1-1c0.2-0.2,0.2-0.5,0-0.7s-0.5-0.2-0.7,0l-0.9,0.9H12.2   l-0.9-0.9c-0.2-0.2-0.5-0.2-0.7,0S10.5,15.2,10.6,15.4z"/><path d="M10.6,17.4l1,1c0.1,0.1,0.2,0.1,0.4,0.1h24c0.1,0,0.3-0.1,0.4-0.1l1-1c0.2-0.2,0.2-0.5,0-0.7s-0.5-0.2-0.7,0l-0.9,0.9H12.2   l-0.9-0.9c-0.2-0.2-0.5-0.2-0.7,0S10.5,17.2,10.6,17.4z"/><path d="M10.6,19.4l1,1c0.1,0.1,0.2,0.1,0.4,0.1h24c0.1,0,0.3-0.1,0.4-0.1l1-1c0.2-0.2,0.2-0.5,0-0.7s-0.5-0.2-0.7,0l-0.9,0.9H12.2   l-0.9-0.9c-0.2-0.2-0.5-0.2-0.7,0S10.5,19.2,10.6,19.4z"/><path d="M10.6,21.4l1,1c0.1,0.1,0.2,0.1,0.4,0.1h24c0.1,0,0.3-0.1,0.4-0.1l1-1c0.2-0.2,0.2-0.5,0-0.7s-0.5-0.2-0.7,0l-0.9,0.9H12.2   l-0.9-0.9c-0.2-0.2-0.5-0.2-0.7,0S10.5,21.2,10.6,21.4z"/><path d="M10.6,23.4l1,1c0.1,0.1,0.2,0.1,0.4,0.1h24c0.1,0,0.3-0.1,0.4-0.1l1-1c0.2-0.2,0.2-0.5,0-0.7s-0.5-0.2-0.7,0l-0.9,0.9H12.2   l-0.9-0.9c-0.2-0.2-0.5-0.2-0.7,0S10.5,23.2,10.6,23.4z"/><path d="M10.6,25.4l1,1c0.1,0.1,0.2,0.1,0.4,0.1h24c0.1,0,0.3-0.1,0.4-0.1l1-1c0.2-0.2,0.2-0.5,0-0.7s-0.5-0.2-0.7,0l-0.9,0.9H12.2   l-0.9-0.9c-0.2-0.2-0.5-0.2-0.7,0S10.5,25.2,10.6,25.4z"/><path d="M36.4,28.4l1-1c0.2-0.2,0.2-0.5,0-0.7s-0.5-0.2-0.7,0l-0.9,0.9H12.2l-0.9-0.9c-0.2-0.2-0.5-0.2-0.7,0s-0.2,0.5,0,0.7l1,1   c0.1,0.1,0.2,0.1,0.4,0.1h24C36.1,28.5,36.3,28.4,36.4,28.4z"/><path d="M16,44.5c1.9,0,3.5-1.6,3.5-3.5v-9c0-0.3-0.2-0.5-0.5-0.5s-0.5,0.2-0.5,0.5v9c0,1.4-1.1,2.5-2.5,2.5s-2.5-1.1-2.5-2.5   s1.1-2.5,2.5-2.5c0.3,0,0.5-0.2,0.5-0.5s-0.2-0.5-0.5-0.5c-1.9,0-3.5,1.6-3.5,3.5S14.1,44.5,16,44.5z"/><path d="M16.5,30v5c0,0.3,0.2,0.5,0.5,0.5s0.5-0.2,0.5-0.5v-5c0-0.3-0.2-0.5-0.5-0.5S16.5,29.7,16.5,30z"/><path d="M14.5,31v5c0,0.3,0.2,0.5,0.5,0.5s0.5-0.2,0.5-0.5v-5c0-0.3-0.2-0.5-0.5-0.5S14.5,30.7,14.5,31z"/><path d="M29,31.5c-0.3,0-0.5,0.2-0.5,0.5v9c0,1.9,1.6,3.5,3.5,3.5s3.5-1.6,3.5-3.5s-1.6-3.5-3.5-3.5c-0.3,0-0.5,0.2-0.5,0.5   s0.2,0.5,0.5,0.5c1.4,0,2.5,1.1,2.5,2.5s-1.1,2.5-2.5,2.5s-2.5-1.1-2.5-2.5v-9C29.5,31.7,29.3,31.5,29,31.5z"/><path d="M31.5,35v-5c0-0.3-0.2-0.5-0.5-0.5s-0.5,0.2-0.5,0.5v5c0,0.3,0.2,0.5,0.5,0.5S31.5,35.3,31.5,35z"/><path d="M33.5,36v-5c0-0.3-0.2-0.5-0.5-0.5s-0.5,0.2-0.5,0.5v5c0,0.3,0.2,0.5,0.5,0.5S33.5,36.3,33.5,36z"/><path d="M21.5,37v4c0,0.3,0.2,0.5,0.5,0.5s0.5-0.2,0.5-0.5v-4c0-0.3-0.2-0.5-0.5-0.5S21.5,36.7,21.5,37z"/><path d="M23.5,34v10c0,0.3,0.2,0.5,0.5,0.5s0.5-0.2,0.5-0.5V34c0-0.3-0.2-0.5-0.5-0.5S23.5,33.7,23.5,34z"/><path d="M25.5,37v4c0,0.3,0.2,0.5,0.5,0.5s0.5-0.2,0.5-0.5v-4c0-0.3-0.2-0.5-0.5-0.5S25.5,36.7,25.5,37z"/><path d="M10,31.5h3c0.3,0,0.5-0.2,0.5-0.5s-0.2-0.5-0.5-0.5h-3c-0.3,0-0.5-0.2-0.5-0.5V10c0-0.3,0.2-0.5,0.5-0.5h28   c0.3,0,0.5,0.2,0.5,0.5v20c0,0.3-0.2,0.5-0.5,0.5h-3c-0.3,0-0.5,0.2-0.5,0.5s0.2,0.5,0.5,0.5h3c0.8,0,1.5-0.7,1.5-1.5V10   c0-0.8-0.7-1.5-1.5-1.5H10c-0.8,0-1.5,0.7-1.5,1.5v20C8.5,30.8,9.2,31.5,10,31.5z"/><path d="M27.5,31c0-0.3-0.2-0.5-0.5-0.5h-6c-0.3,0-0.5,0.2-0.5,0.5s0.2,0.5,0.5,0.5h6C27.3,31.5,27.5,31.3,27.5,31z"/></g></svg>